<svg width="201" height="46" viewBox="0 0 201 46" fill="none" xmlns="http://www.w3.org/2000/svg">
<path d="M0.226 45L1.41 4.104H17.218L23.074 26.888H23.49L29.346 4.104H45.122L46.306 45H35.106L34.914 32.872L34.69 17.192H34.21L28.258 40.168H18.274L12.29 17.192H11.778L11.586 32.904L11.426 45H0.226ZM66.8545 45.96C61.5852 45.96 57.6065 44.68 54.9185 42.12C52.2518 39.5387 50.9185 35.9653 50.9185 31.4V27.4C50.9185 22.728 52.2625 19.08 54.9505 16.456C57.6385 13.832 61.6065 12.52 66.8545 12.52C72.1238 12.52 76.0918 13.832 78.7585 16.456C81.4465 19.08 82.7905 22.728 82.7905 27.4V31.4C82.7905 35.9653 81.4572 39.5387 78.7905 42.12C76.1238 44.68 72.1452 45.96 66.8545 45.96ZM66.8545 37.064C68.3692 37.064 69.5105 36.616 70.2785 35.72C71.0678 34.8027 71.4625 33.5013 71.4625 31.816V26.952C71.4625 25.1387 71.0678 23.7627 70.2785 22.824C69.5105 21.8853 68.3692 21.416 66.8545 21.416C65.3612 21.416 64.2198 21.8853 63.4305 22.824C62.6412 23.7627 62.2465 25.1387 62.2465 26.952V31.816C62.2465 33.5013 62.6412 34.8027 63.4305 35.72C64.2198 36.616 65.3612 37.064 66.8545 37.064ZM101.414 37.64L106.182 13.48H117.766L110.022 45H91.942L84.102 13.48H95.814L100.646 37.64H101.414ZM121.069 45V13.48H132.397V45H121.069ZM126.733 11.208C124.664 11.208 123.16 10.7493 122.221 9.832C121.282 8.89333 120.813 7.63467 120.813 6.056V5.8C120.813 4.22133 121.282 2.97333 122.221 2.056C123.16 1.11733 124.664 0.647999 126.733 0.647999C128.781 0.647999 130.274 1.11733 131.213 2.056C132.173 2.97333 132.653 4.22133 132.653 5.8V6.056C132.653 7.656 132.173 8.91466 131.213 9.832C130.274 10.7493 128.781 11.208 126.733 11.208Z" fill="white"/>
<path d="M154.705 45.832C148.667 45.832 144.23 44.52 141.393 41.896C138.577 39.272 137.169 35.432 137.169 30.376V27.912C137.169 22.8987 138.491 19.08 141.137 16.456C143.803 13.832 147.686 12.52 152.785 12.52C156.177 12.52 159.003 13.0853 161.265 14.216C163.526 15.3253 165.222 16.936 166.353 19.048C167.505 21.1387 168.081 23.6667 168.081 26.632V27.624C168.081 28.4773 168.038 29.352 167.953 30.248C167.889 31.1227 167.782 31.9333 167.632 32.68H157.489C157.574 31.3787 157.627 30.152 157.649 29C157.691 27.848 157.713 26.8133 157.713 25.896C157.713 24.7867 157.542 23.8587 157.201 23.112C156.859 22.344 156.326 21.768 155.601 21.384C154.875 20.9787 153.937 20.776 152.785 20.776C151.057 20.776 149.798 21.224 149.009 22.12C148.241 23.016 147.857 24.2853 147.857 25.928V28.776L147.921 29.992V31.976C147.921 32.6373 148.038 33.2773 148.273 33.896C148.507 34.5147 148.934 35.0693 149.553 35.56C150.193 36.0293 151.089 36.4027 152.241 36.68C153.414 36.9573 154.929 37.096 156.785 37.096C158.683 37.096 160.539 36.9467 162.353 36.648C164.166 36.328 165.915 35.8907 167.601 35.336L166.705 43.56C165.233 44.2853 163.473 44.84 161.425 45.224C159.398 45.6293 157.158 45.832 154.705 45.832ZM143.153 32.68V26.024H165.361V32.68H143.153ZM191.091 39.112H181.587V11.336H191.091V39.112ZM172.563 29.704V20.744H200.083V29.704H172.563Z" fill="#19A7CE"/>
</svg>
